<svg xmlns="http://www.w3.org/2000/svg" xmlns:xlink="http://www.w3.org/1999/xlink" width="500" zoomAndPan="magnify" viewBox="0 0 375 374.999991" height="500" preserveAspectRatio="xMidYMid meet" version="1.0"><defs><g/><clipPath id="0f1fb967e8"><path d="M 187.5 0 C 83.945312 0 0 83.945312 0 187.5 C 0 291.054688 83.945312 375 187.5 375 C 291.054688 375 375 291.054688 375 187.5 C 375 83.945312 291.054688 0 187.5 0 Z M 187.5 0 " clip-rule="nonzero"/></clipPath></defs><g clip-path="url(#0f1fb967e8)"><rect x="-37.5" width="450" fill="#4d4d4d" y="-37.499999" height="449.999989" fill-opacity="1"/></g><g fill="#fdf2d0" fill-opacity="1"><g transform="translate(40.119186, 213.928239)"><g><path d="M 36.84375 -13.859375 C 36.84375 -11.492188 36.40625 -9.382812 35.53125 -7.53125 C 34.65625 -5.6875 33.414062 -4.128906 31.8125 -2.859375 C 30.207031 -1.597656 28.289062 -0.644531 26.0625 0 C 23.84375 0.644531 21.398438 0.96875 18.734375 0.96875 C 17.085938 0.96875 15.519531 0.835938 14.03125 0.578125 C 12.539062 0.328125 11.207031 0.0078125 10.03125 -0.375 C 8.851562 -0.769531 7.851562 -1.179688 7.03125 -1.609375 C 6.207031 -2.035156 5.609375 -2.421875 5.234375 -2.765625 C 4.859375 -3.109375 4.582031 -3.585938 4.40625 -4.203125 C 4.238281 -4.816406 4.15625 -5.65625 4.15625 -6.71875 C 4.15625 -7.375 4.1875 -7.921875 4.25 -8.359375 C 4.320312 -8.804688 4.410156 -9.164062 4.515625 -9.4375 C 4.617188 -9.707031 4.765625 -9.898438 4.953125 -10.015625 C 5.140625 -10.140625 5.351562 -10.203125 5.59375 -10.203125 C 5.96875 -10.203125 6.519531 -9.972656 7.25 -9.515625 C 7.988281 -9.054688 8.894531 -8.550781 9.96875 -8 C 11.050781 -7.457031 12.328125 -6.953125 13.796875 -6.484375 C 15.273438 -6.023438 16.96875 -5.796875 18.875 -5.796875 C 20.3125 -5.796875 21.613281 -5.945312 22.78125 -6.25 C 23.945312 -6.5625 24.957031 -7.015625 25.8125 -7.609375 C 26.664062 -8.210938 27.320312 -8.972656 27.78125 -9.890625 C 28.238281 -10.816406 28.46875 -11.914062 28.46875 -13.1875 C 28.46875 -14.488281 28.132812 -15.582031 27.46875 -16.46875 C 26.800781 -17.351562 25.921875 -18.140625 24.828125 -18.828125 C 23.734375 -19.515625 22.503906 -20.125 21.140625 -20.65625 C 19.773438 -21.1875 18.363281 -21.738281 16.90625 -22.3125 C 15.445312 -22.894531 14.023438 -23.550781 12.640625 -24.28125 C 11.253906 -25.019531 10.015625 -25.921875 8.921875 -26.984375 C 7.828125 -28.046875 6.945312 -29.3125 6.28125 -30.78125 C 5.613281 -32.25 5.28125 -34.007812 5.28125 -36.0625 C 5.28125 -37.875 5.628906 -39.609375 6.328125 -41.265625 C 7.035156 -42.929688 8.085938 -44.390625 9.484375 -45.640625 C 10.890625 -46.890625 12.644531 -47.890625 14.75 -48.640625 C 16.851562 -49.390625 19.304688 -49.765625 22.109375 -49.765625 C 23.335938 -49.765625 24.566406 -49.660156 25.796875 -49.453125 C 27.035156 -49.253906 28.148438 -49 29.140625 -48.6875 C 30.128906 -48.382812 30.972656 -48.050781 31.671875 -47.6875 C 32.378906 -47.332031 32.910156 -47.015625 33.265625 -46.734375 C 33.628906 -46.460938 33.867188 -46.222656 33.984375 -46.015625 C 34.109375 -45.816406 34.195312 -45.585938 34.25 -45.328125 C 34.300781 -45.078125 34.351562 -44.757812 34.40625 -44.375 C 34.457031 -44 34.484375 -43.539062 34.484375 -43 C 34.484375 -42.414062 34.457031 -41.910156 34.40625 -41.484375 C 34.351562 -41.054688 34.265625 -40.703125 34.140625 -40.421875 C 34.023438 -40.148438 33.878906 -39.953125 33.703125 -39.828125 C 33.535156 -39.710938 33.347656 -39.65625 33.140625 -39.65625 C 32.835938 -39.65625 32.394531 -39.84375 31.8125 -40.21875 C 31.226562 -40.601562 30.472656 -41.007812 29.546875 -41.4375 C 28.628906 -41.863281 27.546875 -42.265625 26.296875 -42.640625 C 25.046875 -43.015625 23.617188 -43.203125 22.015625 -43.203125 C 20.578125 -43.203125 19.3125 -43.035156 18.21875 -42.703125 C 17.125 -42.378906 16.222656 -41.921875 15.515625 -41.328125 C 14.816406 -40.734375 14.285156 -40.023438 13.921875 -39.203125 C 13.566406 -38.378906 13.390625 -37.488281 13.390625 -36.53125 C 13.390625 -35.195312 13.726562 -34.078125 14.40625 -33.171875 C 15.09375 -32.265625 15.984375 -31.46875 17.078125 -30.78125 C 18.179688 -30.101562 19.429688 -29.488281 20.828125 -28.9375 C 22.234375 -28.382812 23.660156 -27.816406 25.109375 -27.234375 C 26.566406 -26.660156 28.003906 -26.015625 29.421875 -25.296875 C 30.835938 -24.578125 32.09375 -23.703125 33.1875 -22.671875 C 34.289062 -21.648438 35.175781 -20.421875 35.84375 -18.984375 C 36.507812 -17.546875 36.84375 -15.835938 36.84375 -13.859375 Z M 36.84375 -13.859375 "/></g></g></g><g fill="#fdf2d0" fill-opacity="1"><g transform="translate(81.21117, 213.928239)"><g><path d="M 47.40625 -1.28125 C 47.40625 -1.007812 47.34375 -0.78125 47.21875 -0.59375 C 47.101562 -0.40625 46.890625 -0.238281 46.578125 -0.09375 C 46.273438 0.0390625 45.875 0.140625 45.375 0.203125 C 44.882812 0.273438 44.28125 0.3125 43.5625 0.3125 C 42.769531 0.3125 42.125 0.273438 41.625 0.203125 C 41.132812 0.140625 40.742188 0.0390625 40.453125 -0.09375 C 40.160156 -0.238281 39.960938 -0.40625 39.859375 -0.59375 C 39.765625 -0.78125 39.71875 -1.007812 39.71875 -1.28125 L 39.71875 -7.390625 C 37.082031 -4.484375 34.476562 -2.363281 31.90625 -1.03125 C 29.34375 0.300781 26.742188 0.96875 24.109375 0.96875 C 21.035156 0.96875 18.445312 0.457031 16.34375 -0.5625 C 14.238281 -1.59375 12.535156 -2.988281 11.234375 -4.75 C 9.929688 -6.507812 9 -8.5625 8.4375 -10.90625 C 7.875 -13.25 7.59375 -16.097656 7.59375 -19.453125 L 7.59375 -47.453125 C 7.59375 -47.734375 7.648438 -47.96875 7.765625 -48.15625 C 7.890625 -48.34375 8.125 -48.507812 8.46875 -48.65625 C 8.8125 -48.8125 9.253906 -48.914062 9.796875 -48.96875 C 10.347656 -49.019531 11.035156 -49.046875 11.859375 -49.046875 C 12.671875 -49.046875 13.347656 -49.019531 13.890625 -48.96875 C 14.441406 -48.914062 14.878906 -48.8125 15.203125 -48.65625 C 15.535156 -48.507812 15.769531 -48.34375 15.90625 -48.15625 C 16.039062 -47.96875 16.109375 -47.734375 16.109375 -47.453125 L 16.109375 -20.578125 C 16.109375 -17.867188 16.304688 -15.703125 16.703125 -14.078125 C 17.097656 -12.453125 17.695312 -11.066406 18.5 -9.921875 C 19.300781 -8.773438 20.316406 -7.882812 21.546875 -7.25 C 22.773438 -6.625 24.210938 -6.3125 25.859375 -6.3125 C 27.984375 -6.3125 30.09375 -7.0625 32.1875 -8.5625 C 34.289062 -10.070312 36.523438 -12.28125 38.890625 -15.1875 L 38.890625 -47.453125 C 38.890625 -47.734375 38.945312 -47.96875 39.0625 -48.15625 C 39.1875 -48.34375 39.421875 -48.507812 39.765625 -48.65625 C 40.109375 -48.8125 40.539062 -48.914062 41.0625 -48.96875 C 41.59375 -49.019531 42.289062 -49.046875 43.15625 -49.046875 C 43.96875 -49.046875 44.644531 -49.019531 45.1875 -48.96875 C 45.738281 -48.914062 46.171875 -48.8125 46.484375 -48.65625 C 46.796875 -48.507812 47.023438 -48.34375 47.171875 -48.15625 C 47.328125 -47.96875 47.40625 -47.734375 47.40625 -47.453125 Z M 47.40625 -1.28125 "/></g></g></g><g fill="#fdf2d0" fill-opacity="1"><g transform="translate(136.410877, 213.928239)"><g><path d="M 50.328125 -24.984375 C 50.328125 -20.984375 49.890625 -17.382812 49.015625 -14.1875 C 48.148438 -10.988281 46.867188 -8.257812 45.171875 -6 C 43.484375 -3.738281 41.40625 -2.007812 38.9375 -0.8125 C 36.476562 0.375 33.660156 0.96875 30.484375 0.96875 C 29.003906 0.96875 27.640625 0.820312 26.390625 0.53125 C 25.148438 0.25 23.929688 -0.210938 22.734375 -0.859375 C 21.535156 -1.515625 20.335938 -2.335938 19.140625 -3.328125 C 17.941406 -4.328125 16.675781 -5.523438 15.34375 -6.921875 L 15.34375 -1.28125 C 15.34375 -1.007812 15.273438 -0.769531 15.140625 -0.5625 C 15.003906 -0.351562 14.78125 -0.1875 14.46875 -0.0625 C 14.15625 0.0507812 13.769531 0.140625 13.3125 0.203125 C 12.851562 0.273438 12.265625 0.3125 11.546875 0.3125 C 10.859375 0.3125 10.273438 0.273438 9.796875 0.203125 C 9.316406 0.140625 8.921875 0.0507812 8.609375 -0.0625 C 8.304688 -0.1875 8.101562 -0.351562 8 -0.5625 C 7.894531 -0.769531 7.84375 -1.007812 7.84375 -1.28125 L 7.84375 -69.828125 C 7.84375 -70.097656 7.898438 -70.335938 8.015625 -70.546875 C 8.140625 -70.753906 8.363281 -70.925781 8.6875 -71.0625 C 9.019531 -71.195312 9.457031 -71.296875 10 -71.359375 C 10.550781 -71.429688 11.238281 -71.46875 12.0625 -71.46875 C 12.914062 -71.46875 13.613281 -71.429688 14.15625 -71.359375 C 14.707031 -71.296875 15.132812 -71.195312 15.4375 -71.0625 C 15.75 -70.925781 15.972656 -70.753906 16.109375 -70.546875 C 16.242188 -70.335938 16.3125 -70.097656 16.3125 -69.828125 L 16.3125 -42.171875 C 17.6875 -43.578125 19.015625 -44.757812 20.296875 -45.71875 C 21.578125 -46.675781 22.832031 -47.453125 24.0625 -48.046875 C 25.289062 -48.648438 26.519531 -49.085938 27.75 -49.359375 C 28.988281 -49.628906 30.289062 -49.765625 31.65625 -49.765625 C 35.007812 -49.765625 37.875 -49.097656 40.25 -47.765625 C 42.625 -46.429688 44.554688 -44.644531 46.046875 -42.40625 C 47.535156 -40.164062 48.617188 -37.539062 49.296875 -34.53125 C 49.984375 -31.519531 50.328125 -28.335938 50.328125 -24.984375 Z M 41.40625 -24.015625 C 41.40625 -26.367188 41.222656 -28.65625 40.859375 -30.875 C 40.503906 -33.101562 39.878906 -35.070312 38.984375 -36.78125 C 38.097656 -38.5 36.921875 -39.878906 35.453125 -40.921875 C 33.984375 -41.960938 32.15625 -42.484375 29.96875 -42.484375 C 28.875 -42.484375 27.796875 -42.328125 26.734375 -42.015625 C 25.671875 -41.710938 24.59375 -41.203125 23.5 -40.484375 C 22.40625 -39.765625 21.265625 -38.835938 20.078125 -37.703125 C 18.898438 -36.578125 17.644531 -35.160156 16.3125 -33.453125 L 16.3125 -15.03125 C 18.644531 -12.195312 20.867188 -10.035156 22.984375 -8.546875 C 25.109375 -7.054688 27.316406 -6.3125 29.609375 -6.3125 C 31.722656 -6.3125 33.53125 -6.820312 35.03125 -7.84375 C 36.539062 -8.875 37.765625 -10.234375 38.703125 -11.921875 C 39.648438 -13.617188 40.335938 -15.519531 40.765625 -17.625 C 41.191406 -19.726562 41.40625 -21.859375 41.40625 -24.015625 Z M 41.40625 -24.015625 "/></g></g></g><g fill="#fdf2d0" fill-opacity="1"><g transform="translate(191.610583, 213.928239)"><g><path d="M 76.34375 -1.28125 C 76.34375 -1.007812 76.273438 -0.78125 76.140625 -0.59375 C 76.003906 -0.40625 75.78125 -0.238281 75.46875 -0.09375 C 75.164062 0.0390625 74.738281 0.140625 74.1875 0.203125 C 73.644531 0.273438 72.960938 0.3125 72.140625 0.3125 C 71.285156 0.3125 70.582031 0.273438 70.03125 0.203125 C 69.488281 0.140625 69.050781 0.0390625 68.71875 -0.09375 C 68.394531 -0.238281 68.164062 -0.40625 68.03125 -0.59375 C 67.894531 -0.78125 67.828125 -1.007812 67.828125 -1.28125 L 67.828125 -29.34375 C 67.828125 -31.289062 67.65625 -33.066406 67.3125 -34.671875 C 66.96875 -36.285156 66.421875 -37.671875 65.671875 -38.828125 C 64.921875 -39.992188 63.960938 -40.882812 62.796875 -41.5 C 61.640625 -42.125 60.273438 -42.4375 58.703125 -42.4375 C 56.742188 -42.4375 54.78125 -41.679688 52.8125 -40.171875 C 50.851562 -38.671875 48.691406 -36.46875 46.328125 -33.5625 L 46.328125 -1.28125 C 46.328125 -1.007812 46.257812 -0.78125 46.125 -0.59375 C 45.988281 -0.40625 45.757812 -0.238281 45.4375 -0.09375 C 45.113281 0.0390625 44.675781 0.140625 44.125 0.203125 C 43.570312 0.273438 42.890625 0.3125 42.078125 0.3125 C 41.285156 0.3125 40.609375 0.273438 40.046875 0.203125 C 39.484375 0.140625 39.035156 0.0390625 38.703125 -0.09375 C 38.378906 -0.238281 38.15625 -0.40625 38.03125 -0.59375 C 37.914062 -0.78125 37.859375 -1.007812 37.859375 -1.28125 L 37.859375 -29.34375 C 37.859375 -31.289062 37.671875 -33.066406 37.296875 -34.671875 C 36.921875 -36.285156 36.359375 -37.671875 35.609375 -38.828125 C 34.859375 -39.992188 33.910156 -40.882812 32.765625 -41.5 C 31.617188 -42.125 30.257812 -42.4375 28.6875 -42.4375 C 26.726562 -42.4375 24.757812 -41.679688 22.78125 -40.171875 C 20.800781 -38.671875 18.644531 -36.46875 16.3125 -33.5625 L 16.3125 -1.28125 C 16.3125 -1.007812 16.242188 -0.78125 16.109375 -0.59375 C 15.972656 -0.40625 15.75 -0.238281 15.4375 -0.09375 C 15.132812 0.0390625 14.707031 0.140625 14.15625 0.203125 C 13.613281 0.273438 12.914062 0.3125 12.0625 0.3125 C 11.238281 0.3125 10.550781 0.273438 10 0.203125 C 9.457031 0.140625 9.019531 0.0390625 8.6875 -0.09375 C 8.363281 -0.238281 8.140625 -0.40625 8.015625 -0.59375 C 7.898438 -0.78125 7.84375 -1.007812 7.84375 -1.28125 L 7.84375 -47.453125 C 7.84375 -47.734375 7.894531 -47.96875 8 -48.15625 C 8.101562 -48.34375 8.304688 -48.507812 8.609375 -48.65625 C 8.921875 -48.8125 9.316406 -48.914062 9.796875 -48.96875 C 10.273438 -49.019531 10.910156 -49.046875 11.703125 -49.046875 C 12.453125 -49.046875 13.070312 -49.019531 13.5625 -48.96875 C 14.0625 -48.914062 14.445312 -48.8125 14.71875 -48.65625 C 15 -48.507812 15.195312 -48.34375 15.3125 -48.15625 C 15.4375 -47.96875 15.5 -47.734375 15.5 -47.453125 L 15.5 -41.359375 C 18.09375 -44.265625 20.613281 -46.390625 23.0625 -47.734375 C 25.507812 -49.085938 27.984375 -49.765625 30.484375 -49.765625 C 32.390625 -49.765625 34.101562 -49.539062 35.625 -49.09375 C 37.15625 -48.65625 38.5 -48.03125 39.65625 -47.21875 C 40.820312 -46.414062 41.816406 -45.457031 42.640625 -44.34375 C 43.460938 -43.238281 44.144531 -42.003906 44.6875 -40.640625 C 46.226562 -42.316406 47.691406 -43.734375 49.078125 -44.890625 C 50.460938 -46.054688 51.796875 -47 53.078125 -47.71875 C 54.359375 -48.4375 55.601562 -48.957031 56.8125 -49.28125 C 58.03125 -49.601562 59.253906 -49.765625 60.484375 -49.765625 C 63.460938 -49.765625 65.960938 -49.242188 67.984375 -48.203125 C 70.003906 -47.160156 71.632812 -45.765625 72.875 -44.015625 C 74.125 -42.273438 75.015625 -40.234375 75.546875 -37.890625 C 76.078125 -35.546875 76.34375 -33.078125 76.34375 -30.484375 Z M 76.34375 -1.28125 "/></g></g></g><g fill="#fdf2d0" fill-opacity="1"><g transform="translate(275.538762, 213.928239)"><g><path d="M 16.3125 -1.28125 C 16.3125 -1.007812 16.242188 -0.78125 16.109375 -0.59375 C 15.972656 -0.40625 15.75 -0.238281 15.4375 -0.09375 C 15.132812 0.0390625 14.707031 0.140625 14.15625 0.203125 C 13.613281 0.273438 12.914062 0.3125 12.0625 0.3125 C 11.238281 0.3125 10.550781 0.273438 10 0.203125 C 9.457031 0.140625 9.019531 0.0390625 8.6875 -0.09375 C 8.363281 -0.238281 8.140625 -0.40625 8.015625 -0.59375 C 7.898438 -0.78125 7.84375 -1.007812 7.84375 -1.28125 L 7.84375 -47.453125 C 7.84375 -47.691406 7.898438 -47.914062 8.015625 -48.125 C 8.140625 -48.332031 8.363281 -48.503906 8.6875 -48.640625 C 9.019531 -48.773438 9.457031 -48.875 10 -48.9375 C 10.550781 -49.007812 11.238281 -49.046875 12.0625 -49.046875 C 12.914062 -49.046875 13.613281 -49.007812 14.15625 -48.9375 C 14.707031 -48.875 15.132812 -48.773438 15.4375 -48.640625 C 15.75 -48.503906 15.972656 -48.332031 16.109375 -48.125 C 16.242188 -47.914062 16.3125 -47.691406 16.3125 -47.453125 Z M 17.296875 -63.0625 C 17.296875 -61.070312 16.914062 -59.71875 16.15625 -59 C 15.40625 -58.28125 14.019531 -57.921875 12 -57.921875 C 10.019531 -57.921875 8.660156 -58.269531 7.921875 -58.96875 C 7.191406 -59.675781 6.828125 -61.003906 6.828125 -62.953125 C 6.828125 -64.941406 7.203125 -66.289062 7.953125 -67 C 8.703125 -67.71875 10.085938 -68.078125 12.109375 -68.078125 C 14.085938 -68.078125 15.445312 -67.726562 16.1875 -67.03125 C 16.925781 -66.332031 17.296875 -65.007812 17.296875 -63.0625 Z M 17.296875 -63.0625 "/></g></g></g><g fill="#fdf2d0" fill-opacity="1"><g transform="translate(299.650158, 213.928239)"><g><path d="M 31.859375 -4.671875 C 31.859375 -3.679688 31.789062 -2.894531 31.65625 -2.3125 C 31.519531 -1.726562 31.3125 -1.296875 31.03125 -1.015625 C 30.757812 -0.742188 30.347656 -0.488281 29.796875 -0.25 C 29.253906 -0.0078125 28.632812 0.179688 27.9375 0.328125 C 27.238281 0.484375 26.492188 0.613281 25.703125 0.71875 C 24.921875 0.820312 24.132812 0.875 23.34375 0.875 C 20.945312 0.875 18.894531 0.554688 17.1875 -0.078125 C 15.476562 -0.710938 14.078125 -1.671875 12.984375 -2.953125 C 11.890625 -4.234375 11.09375 -5.859375 10.59375 -7.828125 C 10.09375 -9.796875 9.84375 -12.113281 9.84375 -14.78125 L 9.84375 -41.765625 L 3.390625 -41.765625 C 2.867188 -41.765625 2.453125 -42.035156 2.140625 -42.578125 C 1.835938 -43.128906 1.6875 -44.019531 1.6875 -45.25 C 1.6875 -45.90625 1.726562 -46.453125 1.8125 -46.890625 C 1.90625 -47.335938 2.019531 -47.707031 2.15625 -48 C 2.289062 -48.289062 2.46875 -48.492188 2.6875 -48.609375 C 2.914062 -48.734375 3.164062 -48.796875 3.4375 -48.796875 L 9.84375 -48.796875 L 9.84375 -59.78125 C 9.84375 -60.007812 9.898438 -60.226562 10.015625 -60.4375 C 10.140625 -60.644531 10.363281 -60.820312 10.6875 -60.96875 C 11.019531 -61.125 11.457031 -61.238281 12 -61.3125 C 12.550781 -61.382812 13.238281 -61.421875 14.0625 -61.421875 C 14.914062 -61.421875 15.613281 -61.382812 16.15625 -61.3125 C 16.707031 -61.238281 17.132812 -61.125 17.4375 -60.96875 C 17.75 -60.820312 17.972656 -60.644531 18.109375 -60.4375 C 18.242188 -60.226562 18.3125 -60.007812 18.3125 -59.78125 L 18.3125 -48.796875 L 30.171875 -48.796875 C 30.441406 -48.796875 30.675781 -48.734375 30.875 -48.609375 C 31.082031 -48.492188 31.265625 -48.289062 31.421875 -48 C 31.578125 -47.707031 31.6875 -47.335938 31.75 -46.890625 C 31.820312 -46.453125 31.859375 -45.90625 31.859375 -45.25 C 31.859375 -44.019531 31.703125 -43.128906 31.390625 -42.578125 C 31.085938 -42.035156 30.679688 -41.765625 30.171875 -41.765625 L 18.3125 -41.765625 L 18.3125 -16.015625 C 18.3125 -12.828125 18.78125 -10.421875 19.71875 -8.796875 C 20.664062 -7.171875 22.351562 -6.359375 24.78125 -6.359375 C 25.570312 -6.359375 26.273438 -6.4375 26.890625 -6.59375 C 27.503906 -6.75 28.050781 -6.910156 28.53125 -7.078125 C 29.007812 -7.253906 29.414062 -7.414062 29.75 -7.5625 C 30.09375 -7.71875 30.40625 -7.796875 30.6875 -7.796875 C 30.851562 -7.796875 31.015625 -7.753906 31.171875 -7.671875 C 31.328125 -7.585938 31.445312 -7.425781 31.53125 -7.1875 C 31.613281 -6.945312 31.6875 -6.617188 31.75 -6.203125 C 31.820312 -5.796875 31.859375 -5.285156 31.859375 -4.671875 Z M 31.859375 -4.671875 "/></g></g></g></svg>